<svg width="24" height="24" viewBox="0 0 24 24" fill="none" xmlns="http://www.w3.org/2000/svg">
<path d="M5.90811 0C5.09994 0 4.43872 0.675 4.43872 1.5V22.5C4.43872 23.325 5.09994 24 5.90811 24H20.602C21.4101 24 22.0714 23.325 22.0714 22.5V6L16.1938 0H5.90811Z" fill="#E5E7EB"/>
<path d="M17.6634 6H22.0715L16.194 0V4.5C16.194 5.325 16.8552 6 17.6634 6Z" fill="#9CA3AF"/>
<path d="M19.1326 19.5C19.1326 19.9125 18.802 20.25 18.398 20.25H2.23469C1.83061 20.25 1.5 19.9125 1.5 19.5V12C1.5 11.5875 1.83061 11.25 2.23469 11.25H18.398C18.802 11.25 19.1326 11.5875 19.1326 12V19.5Z" fill="#3B82F6"/>
<path d="M14.2134 14.9321V19.1838H13.2642V14.2466H14.1442L14.2134 14.9321ZM16.4711 15.9901V16.0593C16.4711 16.3186 16.4403 16.5592 16.3788 16.7811C16.3195 17.0031 16.2316 17.1964 16.1151 17.3612C15.9987 17.5238 15.8536 17.6512 15.6801 17.7435C15.5087 17.8336 15.3109 17.8787 15.0868 17.8787C14.8693 17.8787 14.6803 17.8347 14.5199 17.7468C14.3595 17.6589 14.2244 17.5359 14.1145 17.3777C14.0068 17.2173 13.92 17.0316 13.8541 16.8207C13.7882 16.6097 13.7377 16.3834 13.7025 16.1417V15.9604C13.7377 15.7012 13.7882 15.4639 13.8541 15.2485C13.92 15.031 14.0068 14.8431 14.1145 14.6849C14.2244 14.5245 14.3584 14.4004 14.5166 14.3125C14.677 14.2246 14.8649 14.1807 15.0802 14.1807C15.3065 14.1807 15.5054 14.2235 15.6768 14.3092C15.8503 14.3949 15.9954 14.5179 16.1118 14.6783C16.2305 14.8387 16.3195 15.0299 16.3788 15.2518C16.4403 15.4738 16.4711 15.7198 16.4711 15.9901ZM15.5186 16.0593V15.9901C15.5186 15.8385 15.5054 15.699 15.479 15.5715C15.4548 15.4419 15.4153 15.3287 15.3604 15.2321C15.3076 15.1354 15.2373 15.0607 15.1494 15.0079C15.0637 14.953 14.9594 14.9255 14.8363 14.9255C14.7067 14.9255 14.5957 14.9464 14.5034 14.9882C14.4133 15.0299 14.3397 15.0903 14.2826 15.1694C14.2255 15.2485 14.1826 15.343 14.1541 15.4529C14.1255 15.5627 14.1079 15.6869 14.1013 15.8253V16.2834C14.1123 16.446 14.1431 16.5922 14.1936 16.7218C14.2441 16.8492 14.3221 16.9503 14.4276 17.025C14.5331 17.0997 14.6715 17.1371 14.8429 17.1371C14.9681 17.1371 15.0736 17.1096 15.1593 17.0547C15.245 16.9976 15.3142 16.9196 15.3669 16.8207C15.4219 16.7218 15.4603 16.6075 15.4823 16.4779C15.5065 16.3483 15.5186 16.2087 15.5186 16.0593Z" fill="white"/>
<path d="M9.3252 16.8894L10.0668 14.2461H10.6699L10.4755 15.2843L9.73389 17.8123H9.22961L9.3252 16.8894ZM8.94946 14.2461L9.4801 16.8861L9.52954 17.8123H8.93628L8.0332 14.2461H8.94946ZM11.3489 16.8433L11.8663 14.2461H12.7859L11.8828 17.8123H11.2928L11.3489 16.8433ZM10.7523 14.2461L11.4906 16.8696L11.5928 17.8123H11.0852L10.3436 15.2876L10.1558 14.2461H10.7523Z" fill="white"/>
<path d="M5.44922 12.75V17.8125H4.5V12.75H5.44922ZM5.31409 15.9042H5.05371C5.05591 15.6559 5.08887 15.4274 5.15259 15.2186C5.21631 15.0077 5.3075 14.8253 5.42615 14.6715C5.5448 14.5155 5.68652 14.3947 5.85132 14.309C6.01831 14.2233 6.20288 14.1804 6.40503 14.1804C6.58081 14.1804 6.74011 14.2057 6.88293 14.2562C7.02795 14.3046 7.1521 14.3837 7.25537 14.4935C7.36084 14.6012 7.44214 14.7429 7.49927 14.9187C7.5564 15.0945 7.58496 15.3076 7.58496 15.5581V17.8125H6.62915V15.5515C6.62915 15.3933 6.60608 15.2692 6.55994 15.1791C6.51599 15.0868 6.45117 15.022 6.36548 14.9846C6.28198 14.9451 6.17871 14.9253 6.05566 14.9253C5.91943 14.9253 5.80298 14.9506 5.7063 15.0011C5.61182 15.0516 5.53601 15.1219 5.47888 15.212C5.42175 15.2999 5.38 15.4032 5.35364 15.5219C5.32727 15.6405 5.31409 15.7679 5.31409 15.9042Z" fill="white"/>
</svg>
