<svg width="20" height="20" viewBox="0 0 20 20" fill="none" xmlns="http://www.w3.org/2000/svg">
<path d="M1 11.2968L5.32203 15.6188M5.32203 15.6188L3.88136 18.5002M5.32203 15.6188L16.5593 15.6188M18 18.5002L16.5593 15.6188M16.5593 15.6188H18M10.7907 15.5323V8.15603M3.59329 8.70344C3.59329 7.90782 4.23836 7.26276 5.03397 7.26276H5.75431C6.54993 7.26276 7.19499 7.90782 7.19499 8.70344C7.19499 7.90782 7.83987 7.26276 8.63549 7.26276H9.35583C10.1514 7.26276 10.7965 7.90782 10.7965 8.70344C10.7965 7.90782 11.4414 7.26276 12.237 7.26276H12.9573C13.753 7.26276 14.398 7.90782 14.398 8.70344C14.398 7.90782 15.0434 7.26276 15.839 7.26276H16.5593C17.3549 7.26276 18 7.90782 18 8.70344C18 4.725 14.7751 1.50024 10.7967 1.50024C6.81825 1.50024 3.59329 4.725 3.59329 8.70344Z" stroke="#8C959F" stroke-width="1.5" stroke-linecap="round" stroke-linejoin="round"/>
</svg>
