<svg width="20" height="20" viewBox="0 0 20 20" fill="none" xmlns="http://www.w3.org/2000/svg">
<path d="M1.91087 14.8262C2.32347 14.8681 2.64595 15.2165 2.64595 15.6401C2.64595 16.0638 2.32347 16.4122 1.91087 16.454L1.82777 16.4583H1.81818C1.36631 16.4583 1 16.092 1 15.6401C1 15.1882 1.36631 14.8219 1.81818 14.8219H1.82777L1.91087 14.8262Z" fill="white"/>
<path d="M18.1818 14.8219C18.6335 14.8221 19 15.1884 19 15.6401C19 16.0918 18.6335 16.4581 18.1818 16.4583H6.36399C5.91212 16.4583 5.54581 16.092 5.54581 15.6401C5.54581 15.1882 5.91212 14.8219 6.36399 14.8219H18.1818Z" fill="white"/>
<path d="M1.91087 9.37165C2.32347 9.41352 2.64595 9.76192 2.64595 10.1856C2.64595 10.6092 2.32347 10.9576 1.91087 10.9995L1.82777 11.0038H1.81818C1.36631 11.0038 1 10.6374 1 10.1856C1 9.7337 1.36631 9.36739 1.81818 9.36739H1.82777L1.91087 9.37165Z" fill="white"/>
<path d="M18.1818 9.36739C18.6335 9.3676 19 9.73383 19 10.1856C19 10.6373 18.6335 11.0035 18.1818 11.0038H6.36399C5.91212 11.0038 5.54581 10.6374 5.54581 10.1856C5.54581 9.7337 5.91212 9.36739 6.36399 9.36739H18.1818Z" fill="white"/>
<path d="M1.91087 3.9171C2.32347 3.95898 2.64595 4.30738 2.64595 4.73102C2.64595 5.15467 2.32347 5.50307 1.91087 5.54494L1.82777 5.54921H1.81818C1.36631 5.54921 1 5.18289 1 4.73102C1 4.27915 1.36631 3.91284 1.81818 3.91284H1.82777L1.91087 3.9171Z" fill="white"/>
<path d="M18.1818 3.91284C18.6335 3.91306 19 4.27929 19 4.73102C19 5.18276 18.6335 5.54899 18.1818 5.54921H6.36399C5.91212 5.54921 5.54581 5.18289 5.54581 4.73102C5.54581 4.27915 5.91212 3.91284 6.36399 3.91284H18.1818Z" fill="white"/>
</svg>
