<svg width="24" height="24" viewBox="0 0 24 24" fill="none" xmlns="http://www.w3.org/2000/svg">
<path d="M5.90811 0C5.09994 0 4.43872 0.675 4.43872 1.5V22.5C4.43872 23.325 5.09994 24 5.90811 24H20.602C21.4101 24 22.0714 23.325 22.0714 22.5V6L16.1938 0H5.90811Z" fill="#E5E7EB"/>
<path d="M17.6634 6H22.0715L16.194 0V4.5C16.194 5.325 16.8552 6 17.6634 6Z" fill="#9CA3AF"/>
<path d="M19.1326 19.5C19.1326 19.9125 18.802 20.25 18.398 20.25H2.23469C1.83061 20.25 1.5 19.9125 1.5 19.5V12C1.5 11.5875 1.83061 11.25 2.23469 11.25H18.398C18.802 11.25 19.1326 11.5875 19.1326 12V19.5Z" fill="#EF4444"/>
<path d="M16.0711 13.2715V14.0927H14.0148V15.3812H15.7706V16.209H14.0148V18.2118H13.0267V13.2715H16.0711Z" fill="white"/>
<path d="M9.81571 13.2715C11.3245 13.2715 12.2592 14.0459 12.2592 15.7216C12.2592 17.3773 11.3245 18.2118 9.86912 18.2118H8.46045V13.2715H9.81571ZM9.75562 17.4174C10.6836 17.4174 11.2511 16.9233 11.2511 15.7216C11.2511 14.5132 10.6836 14.0593 9.75562 14.0593H9.44852V17.4174H9.75562Z" fill="white"/>
<path d="M5.83117 13.2715C6.91938 13.2715 7.76725 13.6453 7.76725 14.8204C7.76725 15.9486 6.91938 16.456 5.85787 16.456H5.19693V18.2118H4.20886V13.2715H5.83117ZM5.79111 15.6749C6.4654 15.6749 6.79921 15.3878 6.79921 14.8204C6.79921 14.2395 6.44538 14.0526 5.75773 14.0526H5.19693V15.6749H5.79111Z" fill="white"/>
</svg>
