<svg width="20" height="20" viewBox="0 0 20 20" fill="none" xmlns="http://www.w3.org/2000/svg">
<g clip-path="url(#clip0_1648_490)">
<path d="M18.3337 13.4722H15.5911C14.421 13.4722 13.4724 14.4208 13.4724 15.5908V18.3334M13.4724 18.3334H5.20329C4.26552 18.3334 3.36589 17.9608 2.70275 17.2977C2.03961 16.6345 1.66699 15.7349 1.66699 14.7971V5.20305C1.66699 4.26528 2.03961 3.36564 2.70275 2.70251C3.36589 2.03937 4.26552 1.66675 5.20329 1.66675H14.7971C15.7349 1.66675 16.6345 2.03937 17.2976 2.70251C17.9608 3.36564 18.3334 4.26528 18.3334 5.20305V13.4724C18.3334 14.3617 17.9801 15.2148 17.3514 15.8435L15.8434 17.3514C15.2147 17.9801 14.3617 18.3334 13.4724 18.3334ZM5.83359 14.1668H10.0002M5.83359 5.83335H14.1671M5.83359 9.99995H14.1671" stroke="#8C959F" stroke-width="1.5" stroke-linecap="round" stroke-linejoin="round"/>
</g>
<defs>
<clipPath id="clip0_1648_490">
<rect width="20" height="20" fill="white"/>
</clipPath>
</defs>
</svg>
