<svg width="24" height="24" viewBox="0 0 24 24" fill="none" xmlns="http://www.w3.org/2000/svg">
<path d="M5.90811 0C5.09994 0 4.43872 0.675 4.43872 1.5V22.5C4.43872 23.325 5.09994 24 5.90811 24H20.602C21.4101 24 22.0714 23.325 22.0714 22.5V6L16.1938 0H5.90811Z" fill="#E5E7EB"/>
<path d="M17.6632 6H22.0714L16.1938 0V4.5C16.1938 5.325 16.8551 6 17.6632 6Z" fill="#9CA3AF"/>
<path d="M19.1326 19.5C19.1326 19.9125 18.802 20.25 18.3979 20.25H2.23469C1.83061 20.25 1.5 19.9125 1.5 19.5V12C1.5 11.5875 1.83061 11.25 2.23469 11.25H18.3979C18.802 11.25 19.1326 11.5875 19.1326 12V19.5Z" fill="#268E6C"/>
<path d="M14.518 18.3358C13.2044 18.3358 12.2207 17.4686 12.2207 15.8702C12.2207 14.2911 13.2497 13.3657 14.518 13.3657C15.2105 13.3657 15.6894 13.6634 16 13.9805L15.4888 14.5888C15.2558 14.3623 14.9905 14.1876 14.5504 14.1876C13.7544 14.1876 13.1979 14.8088 13.1979 15.8378C13.1979 16.8797 13.6768 17.5074 14.6151 17.5074C14.8481 17.5074 15.0811 17.4492 15.217 17.3262V16.3814H14.3692V15.5984H16.0712V17.7598C15.7411 18.0769 15.1911 18.3358 14.518 18.3358Z" fill="white"/>
<path d="M9.91044 13.4561C10.9653 13.4561 11.7871 13.8185 11.7871 14.9574C11.7871 16.0511 10.9653 16.5429 9.93633 16.5429H9.29566V18.2449H8.33789V13.4561H9.91044ZM9.87161 15.7858C10.5252 15.7858 10.8488 15.5075 10.8488 14.9574C10.8488 14.3944 10.5058 14.2132 9.83925 14.2132H9.29566V15.7858H9.87161Z" fill="white"/>
<path d="M5.89601 18.3355C5.1971 18.3355 4.73763 18.0637 4.40759 17.4942L5.06768 17.0089C5.25535 17.3712 5.50126 17.5071 5.77953 17.5071C6.20017 17.5071 6.4202 17.2871 6.4202 16.6206V13.4561H7.37796V16.6982C7.37796 17.5977 6.92497 18.3355 5.89601 18.3355Z" fill="white"/>
</svg>
