<svg width="24" height="24" viewBox="0 0 24 24" fill="none" xmlns="http://www.w3.org/2000/svg">
<path d="M5.90811 0C5.09994 0 4.43872 0.675 4.43872 1.5V22.5C4.43872 23.325 5.09994 24 5.90811 24H20.602C21.4101 24 22.0714 23.325 22.0714 22.5V6L16.1938 0H5.90811Z" fill="#E5E7EB"/>
<path d="M17.6634 6H22.0715L16.194 0V4.5C16.194 5.325 16.8552 6 17.6634 6Z" fill="#9CA3AF"/>
<path d="M19.1326 19.5C19.1326 19.9125 18.802 20.25 18.398 20.25H2.23469C1.83061 20.25 1.5 19.9125 1.5 19.5V12C1.5 11.5875 1.83061 11.25 2.23469 11.25H18.398C18.802 11.25 19.1326 11.5875 19.1326 12V19.5Z" fill="#8C959F"/>
</svg>
