<svg width="20" height="20" viewBox="0 0 20 20" fill="none" xmlns="http://www.w3.org/2000/svg">
<g clip-path="url(#clip0_1091_8625)">
<path d="M15.1243 8.87076L15.3398 8.15239V8.15239L15.1243 8.87076ZM17.1703 9.82858L16.5686 10.2763L17.1703 9.82858ZM6.6665 6.75008C6.25229 6.75008 5.9165 7.08587 5.9165 7.50008C5.9165 7.91429 6.25229 8.25008 6.6665 8.25008V6.75008ZM9.1665 8.25008C9.58072 8.25008 9.9165 7.91429 9.9165 7.50008C9.9165 7.08587 9.58072 6.75008 9.1665 6.75008V8.25008ZM6.6665 10.0834C6.25229 10.0834 5.9165 10.4192 5.9165 10.8334C5.9165 11.2476 6.25229 11.5834 6.6665 11.5834L6.6665 10.0834ZM9.1665 11.5834C9.58072 11.5834 9.9165 11.2476 9.9165 10.8334C9.9165 10.4192 9.58072 10.0834 9.1665 10.0834L9.1665 11.5834ZM9.24984 18.3334C9.24984 18.7476 9.58562 19.0834 9.99984 19.0834C10.4141 19.0834 10.7498 18.7476 10.7498 18.3334H9.24984ZM5.08317 18.3334C5.08317 18.7476 5.41896 19.0834 5.83317 19.0834C6.24738 19.0834 6.58317 18.7476 6.58317 18.3334H5.08317ZM9.75576 14.4108L9.22543 14.9412L9.75576 14.4108ZM18.3332 19.0834C18.7474 19.0834 19.0832 18.7476 19.0832 18.3334C19.0832 17.9192 18.7474 17.5834 18.3332 17.5834V19.0834ZM1.6665 17.5834C1.25229 17.5834 0.916504 17.9192 0.916504 18.3334C0.916504 18.7476 1.25229 19.0834 1.6665 19.0834V17.5834ZM1.74984 18.3334C1.74984 18.7476 2.08562 19.0834 2.49984 19.0834C2.91405 19.0834 3.24984 18.7476 3.24984 18.3334H1.74984ZM6.7311 2.26666L6.94017 1.54639V1.54639L6.7311 2.26666ZM10.8978 3.4761L10.6887 4.19637L10.8978 3.4761ZM12.5832 18.3334C12.5832 18.7476 12.919 19.0834 13.3332 19.0834C13.7474 19.0834 14.0832 18.7476 14.0832 18.3334H12.5832ZM12.9943 4.44979L13.5997 4.00715L12.9943 4.44979ZM13.3332 8.33342L13.1177 9.05178L14.9088 9.58913L15.1243 8.87076L15.3398 8.15239L13.5487 7.61505L13.3332 8.33342ZM17.4998 12.0635H16.7498V18.3334H17.4998H18.2498V12.0635H17.4998ZM15.1243 8.87076L14.9088 9.58913C15.4979 9.76586 15.8778 9.88106 16.1558 10.001C16.4157 10.1131 16.5112 10.1992 16.5686 10.2763L17.1703 9.82858L17.772 9.38088C17.4999 9.01514 17.1446 8.79391 16.75 8.62368C16.3734 8.46123 15.8951 8.31896 15.3398 8.15239L15.1243 8.87076ZM17.4998 12.0635H18.2498C18.2498 11.4838 18.251 10.9848 18.2036 10.5774C18.154 10.1506 18.0442 9.74663 17.772 9.38088L17.1703 9.82858L16.5686 10.2763C16.626 10.3534 16.681 10.4696 16.7137 10.7508C16.7487 11.0515 16.7498 11.4485 16.7498 12.0635H17.4998ZM6.6665 7.50008V8.25008H9.1665V7.50008V6.75008H6.6665V7.50008ZM6.6665 10.8334L6.6665 11.5834L9.1665 11.5834L9.1665 10.8334L9.1665 10.0834L6.6665 10.0834L6.6665 10.8334ZM7.49984 14.1667V14.9167H8.33317V14.1667V13.4167H7.49984V14.1667ZM9.99984 15.8334H9.24984V18.3334H9.99984H10.7498V15.8334H9.99984ZM5.83317 18.3334H6.58317V15.8334H5.83317H5.08317V18.3334H5.83317ZM8.33317 14.1667V14.9167C8.74721 14.9167 8.98229 14.9183 9.14763 14.9406C9.29139 14.9599 9.26597 14.9817 9.22543 14.9412L9.75576 14.4108L10.2861 13.8805C10.0015 13.5959 9.65759 13.4956 9.3475 13.4539C9.05898 13.4152 8.7048 13.4167 8.33317 13.4167V14.1667ZM9.99984 15.8334H10.7498C10.7498 15.4618 10.7514 15.1076 10.7126 14.8191C10.6709 14.509 10.5707 14.1651 10.2861 13.8805L9.75576 14.4108L9.22543 14.9412C9.18489 14.9006 9.20669 14.8752 9.22602 15.019C9.24824 15.1843 9.24984 15.4194 9.24984 15.8334H9.99984ZM7.49984 14.1667V13.4167C7.1282 13.4167 6.77403 13.4152 6.48551 13.4539C6.17541 13.4956 5.83153 13.5959 5.54692 13.8805L6.07725 14.4108L6.60758 14.9412C6.56704 14.9817 6.54162 14.9599 6.68538 14.9406C6.85072 14.9183 7.0858 14.9167 7.49984 14.9167V14.1667ZM5.83317 15.8334H6.58317C6.58317 15.4194 6.58476 15.1843 6.60699 15.019C6.62632 14.8752 6.64812 14.9006 6.60758 14.9412L6.07725 14.4108L5.54692 13.8805C5.2623 14.1651 5.16206 14.509 5.12037 14.8191C5.08158 15.1076 5.08317 15.4618 5.08317 15.8334H5.83317ZM18.3332 18.3334V17.5834H1.6665V18.3334V19.0834H18.3332V18.3334ZM2.49984 18.3334H3.24984V5.59778H2.49984H1.74984V18.3334H2.49984ZM6.7311 2.26666L6.52203 2.98693L10.6887 4.19637L10.8978 3.4761L11.1068 2.75583L6.94017 1.54639L6.7311 2.26666ZM13.3332 6.80722H12.5832V18.3334H13.3332H14.0832V6.80722H13.3332ZM10.8978 3.4761L10.6887 4.19637C11.2922 4.37154 11.6803 4.48552 11.9642 4.60658C12.228 4.71906 12.3271 4.808 12.3888 4.89244L12.9943 4.44979L13.5997 4.00715C13.3226 3.62807 12.9593 3.40022 12.5525 3.22677C12.1658 3.06189 11.6751 2.92077 11.1068 2.75583L10.8978 3.4761ZM13.3332 6.80722H14.0832C14.0832 6.19318 14.0843 5.66994 14.036 5.24435C13.9857 4.8008 13.8751 4.38374 13.5997 4.00715L12.9943 4.44979L12.3888 4.89244C12.4524 4.97936 12.5112 5.10971 12.5456 5.41334C12.582 5.73493 12.5832 6.15865 12.5832 6.80722H13.3332ZM2.49984 5.59778H3.24984C3.24984 4.52861 3.2516 3.80679 3.32499 3.28318C3.39633 2.77425 3.51601 2.61387 3.62309 2.52958L3.15916 1.94028L2.69523 1.35099C2.14298 1.78575 1.93301 2.40798 1.83951 3.07496C1.74808 3.72727 1.74984 4.57466 1.74984 5.59778H2.49984ZM6.7311 2.26666L6.94017 1.54639C5.9931 1.27149 5.20072 1.03938 4.56374 0.9541C3.90498 0.865907 3.2542 0.910928 2.69523 1.35099L3.15916 1.94028L3.62309 2.52958C3.72343 2.45058 3.88774 2.37698 4.3647 2.44084C4.86342 2.5076 5.52736 2.69821 6.52203 2.98693L6.7311 2.26666Z" fill="#8C959F"/>
</g>
<defs>
<clipPath id="clip0_1091_8625">
<rect width="20" height="20" fill="white"/>
</clipPath>
</defs>
</svg>
