<svg width="21" height="22" viewBox="0 0 21 22" fill="none" xmlns="http://www.w3.org/2000/svg">
<path fill-rule="evenodd" clip-rule="evenodd" d="M3.18457 10.4655L5.31062 15.5397L15.4495 14.6515C16.092 14.5948 16.4889 13.9333 16.2432 13.3475L12.5108 4.44646C12.2651 3.86062 11.5376 3.68108 11.0462 4.07794L3.18457 10.4655Z" stroke="#8C959F" stroke-width="1.5" stroke-miterlimit="10" stroke-linecap="round"/>
<path d="M3.20327 10.5317L1.57802 11.2121C1.09612 11.4105 0.869343 11.968 1.07722 12.4499L2.49459 15.8138C2.69302 16.2957 3.25051 16.5225 3.73242 16.3146L5.35766 15.6342" stroke="#8C959F" stroke-width="1.5" stroke-miterlimit="10" stroke-linecap="round"/>
<path d="M5.31055 15.5302L6.79405 19.0736C6.99248 19.5555 7.54998 19.7823 8.03188 19.5744L8.92955 19.1964C9.41145 18.998 9.63823 18.4405 9.43035 17.9586L8.29646 15.2656" stroke="#8C959F" stroke-width="1.5" stroke-miterlimit="10" stroke-linecap="round"/>
<path d="M18.1235 7.23384L20.0228 6.43066" stroke="#8C959F" stroke-width="1.5" stroke-miterlimit="10" stroke-linecap="round"/>
<path d="M14.9302 4.40872L15.7145 2.5" stroke="#8C959F" stroke-width="1.5" stroke-miterlimit="10" stroke-linecap="round"/>
<path d="M17.8877 11.4578L19.7964 12.2326" stroke="#8C959F" stroke-width="1.5" stroke-miterlimit="10" stroke-linecap="round"/>
</svg>
