<svg width="32" height="32" viewBox="0 0 32 32" fill="none" xmlns="http://www.w3.org/2000/svg">
<path d="M15.9999 6.66667C17.9094 6.66667 19.7408 7.34095 21.0911 8.54118C22.4413 9.74142 23.1999 11.3693 23.1999 13.0667C23.1999 15.6921 23.7933 17.6581 24.5629 19.1039C25.5461 20.951 26.0377 21.8746 26.0104 22.0857C25.9785 22.3318 25.9379 22.3995 25.7355 22.5434C25.5621 22.6667 24.6992 22.6667 22.9735 22.6667H9.02625C7.30054 22.6667 6.43769 22.6667 6.26424 22.5434C6.06191 22.3995 6.02126 22.3318 5.98936 22.0857C5.96202 21.8746 6.45364 20.951 7.43687 19.1039C8.20643 17.6581 8.79988 15.6921 8.79988 13.0667C8.79988 11.3693 9.55845 9.74142 10.9087 8.54118C12.259 7.34095 14.0903 6.66667 15.9999 6.66667ZM15.9999 6.66667V4M12.4719 26.6667C13.4136 27.4978 14.6505 28.0021 16.0052 28.0021C17.36 28.0021 18.5969 27.4978 19.5386 26.6667" stroke="#212529" stroke-width="1.5" stroke-linecap="round" stroke-linejoin="round"/>
</svg>
