<svg width="20" height="20" viewBox="0 0 20 20" fill="none" xmlns="http://www.w3.org/2000/svg">
<path d="M2.5 9.16675L2.6274 11.8558C2.76428 14.7239 2.83272 16.1579 3.79904 17.0373C4.76536 17.9167 6.27263 17.9167 9.28719 17.9167H10.7128C13.7274 17.9167 15.2346 17.9167 16.201 17.0373C17.1673 16.1579 17.2357 14.7239 17.3726 11.8558L17.5 9.16675" stroke="#8C959F" stroke-width="1.5" stroke-linecap="round" stroke-linejoin="round"/>
<path d="M2.37282 8.70255C3.78889 11.3954 6.98283 12.5 10.0002 12.5C13.0175 12.5 16.2114 11.3954 17.6275 8.70255C18.3035 7.41713 17.7916 5 16.1268 5H3.8735C2.20869 5 1.69685 7.41714 2.37282 8.70255Z" stroke="#8C959F" stroke-width="1.5"/>
<path d="M10 9.16675H10.0075" stroke="#8C959F" stroke-width="2" stroke-linecap="round" stroke-linejoin="round"/>
<path d="M13.3332 4.99992L13.2596 4.74237C12.8929 3.459 12.7096 2.81731 12.2731 2.45028C11.8366 2.08325 11.2568 2.08325 10.0973 2.08325H9.90237C8.74283 2.08325 8.16306 2.08325 7.72659 2.45028C7.29011 2.81731 7.10677 3.459 6.74009 4.74237L6.6665 4.99992" stroke="#8C959F" stroke-width="1.5"/>
</svg>
