<svg width="20" height="20" viewBox="0 0 20 20" fill="none" xmlns="http://www.w3.org/2000/svg">
<g clip-path="url(#clip0_1085_1610)">
<path d="M2.37817 13.3334C1.92068 12.3054 1.6665 11.1675 1.6665 9.97055C1.6665 5.38449 5.39746 1.66675 9.99984 1.66675C14.6022 1.66675 18.3332 5.38449 18.3332 9.97055C18.3332 11.1675 18.079 12.3054 17.6215 13.3334M6.4853 14.2594C8.63561 13.0248 11.3641 13.0248 13.5144 14.2594C14.4314 14.7859 16.8356 15.861 15.3713 17.2063C14.6559 17.8634 13.8592 18.3334 12.8576 18.3334H7.14207C6.14043 18.3334 5.34374 17.8634 4.62841 17.2063C3.16405 15.861 5.56832 14.7859 6.4853 14.2594ZM12.9165 8.33342C12.9165 9.94425 11.6107 11.2501 9.99984 11.2501C8.38901 11.2501 7.08317 9.94425 7.08317 8.33342C7.08317 6.72258 8.38901 5.41675 9.99984 5.41675C11.6107 5.41675 12.9165 6.72258 12.9165 8.33342Z" stroke="#8C959F" stroke-width="1.5" stroke-linecap="round"/>
</g>
<defs>
<clipPath id="clip0_1085_1610">
<rect width="20" height="20" fill="white"/>
</clipPath>
</defs>
</svg>
