<svg width="57" height="56" viewBox="0 0 57 56" fill="none" xmlns="http://www.w3.org/2000/svg">
<circle cx="28.5" cy="28" r="28" fill="#FFF7E6"/>
<g clip-path="url(#clip0_1749_2155)">
<path d="M28.4239 41.7349L27.1548 42.1968C26.6607 42.3767 26.1071 42.2141 25.7887 41.7957L19.1411 33.0605L24.723 31.0288L29.0945 40.0847C29.4035 40.7248 29.0918 41.4918 28.4239 41.7349Z" fill="#404049"/>
<path d="M30.5609 15.718C27.5514 19.5014 23.07 22.526 19.3086 24.266L21.2988 29.734L23.2889 35.2019C27.2889 34.1171 32.6659 33.5535 37.4032 34.5172C36.5482 30.7635 35.7404 27.8417 34.6592 24.8712C33.578 21.9006 32.3188 19.1432 30.5609 15.718Z" fill="white"/>
<path d="M21.3106 35.9218L23.289 35.2018L19.3087 24.2659L17.3303 24.9859C14.3104 26.0851 12.7534 29.4242 13.8525 32.4441C14.9516 35.4639 18.2908 37.021 21.3106 35.9218Z" fill="#FB923C"/>
<path d="M39.3005 35.4027C38.5306 35.6829 37.6793 35.2859 37.3991 34.5161L30.5586 15.722C30.2784 14.9521 30.6754 14.1008 31.4453 13.8206C32.2151 13.5404 33.0664 13.9373 33.3466 14.7072L40.1871 33.5013C40.4673 34.2712 40.0704 35.1225 39.3005 35.4027Z" fill="#F97316"/>
<path d="M38.4295 20.0113C38.3316 20.0113 38.2336 19.9825 38.1481 19.9229C37.9252 19.7673 37.8705 19.4609 38.0261 19.238L39.2239 17.521C39.3805 17.2982 39.6888 17.2453 39.9088 17.399C40.1316 17.5546 40.1864 17.8611 40.0308 18.0839L38.833 19.8009C38.7369 19.9378 38.5842 20.0113 38.4295 20.0113ZM43.483 27.2217C43.5541 26.9594 43.3985 26.6895 43.1363 26.6185L41.1152 26.0729C40.8578 26.0042 40.5831 26.1574 40.513 26.4196C40.4419 26.6818 40.5975 26.9518 40.8597 27.0228L42.8807 27.5684C42.923 27.58 42.9662 27.5853 43.0085 27.5853C43.2256 27.5852 43.4244 27.4412 43.483 27.2217ZM39.8771 23.4957L41.8539 22.7762C42.1094 22.6835 42.241 22.4011 42.1478 22.1461C42.0547 21.8911 41.7732 21.759 41.5177 21.8522L39.5409 22.5716C39.2854 22.6643 39.1538 22.9467 39.247 23.2018C39.32 23.4016 39.5082 23.5255 39.709 23.5255C39.7647 23.5255 39.8214 23.5159 39.8771 23.4957Z" fill="#404049"/>
</g>
<defs>
<clipPath id="clip0_1749_2155">
<rect width="30" height="30" fill="white" transform="translate(13.5 13)"/>
</clipPath>
</defs>
</svg>
