<svg width="56" height="56" viewBox="0 0 56 56" fill="none" xmlns="http://www.w3.org/2000/svg">
<circle cx="28" cy="28" r="28" fill="#FFFBD6"/>
<g clip-path="url(#clip0_1749_2143)">
<path d="M25.5602 20.5504C26.6756 19.8414 25.8717 20.357 26.122 20.1988H26.1248L26.1304 20.2105L26.1415 20.2281L26.1638 20.2633L26.2083 20.3336L26.3001 20.4742L26.4836 20.7554C26.6032 20.9429 26.734 21.1275 26.848 21.3208C27.0761 21.7075 27.3236 22.0855 27.5406 22.4809C27.7603 22.8735 27.9884 23.2661 28.1915 23.6703L28.5058 24.2738L28.8006 24.889C29.5822 26.5325 30.2553 28.2492 30.7866 30.0245C31.3206 31.7969 31.7295 33.6249 32.0021 35.4852C32.1411 36.4168 32.2357 37.3543 32.3108 38.2976L32.5111 40.9635H28.019L28.2193 38.3005C28.2777 37.4685 28.3194 36.6307 28.3222 35.7899C28.3277 34.1083 28.2137 32.415 27.9717 30.7305C27.7325 29.0461 27.3542 27.3733 26.8591 25.7269L26.6728 25.1087L26.4642 24.4994C26.3307 24.0893 26.1749 23.6879 26.0247 23.2866C25.8773 22.8794 25.6993 22.4897 25.5379 22.0884C25.4573 21.8862 25.3627 21.6958 25.2737 21.4966L25.1402 21.2007L25.0734 21.0543L25.04 20.981L25.0234 20.9429L25.015 20.9254L25.0095 20.9166V20.9107C25.257 20.7496 24.4476 21.2622 25.563 20.5504H25.5602Z" fill="#FF9C00"/>
<path d="M26.3112 22.2115L21.2239 19.5574L21.388 17.9695L20.2866 19.0681L19.4132 18.614L19.5773 17.0262L18.4758 18.1248L16.373 17.0262C18.2172 15.7519 20.6343 15.5146 22.7537 16.619C24.8732 17.7235 26.1583 19.8943 26.314 22.2115H26.3112Z" fill="#5CAF53"/>
<path d="M26.3111 22.2113L20.9318 24.1243L19.9833 22.8792L19.9416 24.4758L19.0181 24.8039L18.0696 23.5589L18.0279 25.1555L15.8027 25.9464C16.2506 23.6731 17.7998 21.7044 20.0417 20.9076C22.2808 20.1108 24.6478 20.6879 26.3139 22.2113H26.3111Z" fill="#A3DB74"/>
<path d="M26.3111 22.2109L28.8311 16.8528L27.7881 15.6956L29.2956 15.8655L29.7267 14.9456L28.6837 13.7885L30.1913 13.9584L31.2343 11.7437C29.0342 11.9048 26.9731 13.2612 25.9245 15.4905C24.8759 17.7229 25.1012 20.2686 26.3111 22.2109Z" fill="#A3DB74"/>
<path d="M26.311 22.2113L31.6904 20.2983L31.7293 18.7017L32.6806 19.9468L33.6041 19.6187L33.643 18.0221L34.5943 19.2671L36.8194 18.4762C35.1561 16.9528 32.7891 16.3757 30.55 17.1725C28.3109 17.9693 26.7589 19.938 26.311 22.2143V22.2113Z" fill="#5CAF53"/>
<path d="M38.8002 42.8588H21.1045C21.4077 41.145 22.1503 39.5982 23.2045 38.3443C24.8567 36.3786 27.2655 35.1394 29.9524 35.1394C32.6393 35.1394 35.1704 36.4401 36.817 38.4879C37.8128 39.7183 38.5082 41.2124 38.8002 42.8588Z" fill="#E2C186"/>
<path d="M36.8166 38.4879C36.5607 38.7252 36.2381 38.8482 35.9126 38.8482C35.5622 38.8482 35.2089 38.7047 34.9419 38.4234C34.6749 38.1422 34.3216 37.9986 33.9684 37.9986C33.6152 37.9986 33.2675 38.1422 32.9977 38.4234C32.7306 38.7047 32.3802 38.8482 32.0269 38.8482C31.6737 38.8482 31.326 38.7047 31.0562 38.4234C30.7864 38.1422 30.4359 37.9986 30.0855 37.9986C29.735 37.9986 29.379 38.1422 29.1119 38.4234C28.8449 38.7047 28.4945 38.8482 28.1412 38.8482C27.788 38.8482 27.4375 38.7047 27.1705 38.4234C26.9035 38.1422 26.5502 37.9986 26.197 37.9986C25.8437 37.9986 25.496 38.1422 25.2262 38.4234C24.9592 38.7047 24.6087 38.8482 24.2555 38.8482C23.9023 38.8482 23.5546 38.7047 23.2848 38.4234C23.2569 38.3941 23.2319 38.3707 23.2041 38.3443C24.8563 36.3786 27.2651 35.1394 29.952 35.1394C32.6389 35.1394 35.17 36.4401 36.8166 38.4879Z" fill="#5CAF53"/>
</g>
<defs>
<clipPath id="clip0_1749_2143">
<rect width="23" height="31.1176" fill="white" transform="translate(15.7998 11.7412)"/>
</clipPath>
</defs>
</svg>
